<svg viewBox="-5 -5 60 60" fill="#ffffff" xmlns="http://www.w3.org/2000/svg">
<path d="M45.6091 19.4278H46.0323C47.1183 19.4278 48 20.3089 48 21.3968V27.504C48 28.5903 47.1183 29.4721 46.0323 29.4721H45.7566C45.6468 29.4849 45.5354 29.489 45.4223 29.4801C40.998 29.149 36.6114 30.7532 33.4446 33.9199C30.2778 37.0873 28.6748 41.4749 29.0058 45.8994C29.0085 45.9364 29.0069 45.9719 29.0053 46.0072C29.0045 46.0247 29.0037 46.0422 29.0034 46.0597L29.005 46.483C29.005 47.5693 28.1242 48.4512 27.0373 48.4512H20.9314C19.8446 48.4512 18.9629 47.5693 18.9629 46.483V46.0597L18.9894 46.0549C18.9891 46.0367 18.9881 46.0187 18.9871 46.0008C18.9853 45.9675 18.9836 45.9343 18.9862 45.8994C19.318 41.4749 17.7142 37.0873 14.5474 33.9199C11.3814 30.7532 6.99397 29.149 2.56964 29.4801C2.45663 29.489 2.34522 29.4849 2.23621 29.4721H1.96771C0.880859 29.4721 0 28.5903 0 27.504V21.3968C0 20.3089 0.880859 19.4278 1.96771 19.4278H2.3901L2.39251 19.439C2.40843 19.4386 2.42424 19.438 2.44001 19.4373C2.48298 19.4355 2.52567 19.4337 2.56964 19.4366C6.99397 19.7685 11.3814 18.1644 14.5474 14.9961C17.7142 11.8303 19.318 7.44185 18.9862 3.01656C18.9833 2.97621 18.9853 2.93627 18.9873 2.89673C18.9881 2.88049 18.9889 2.86431 18.9894 2.84821L18.9629 2.84259V2.4193C18.9629 1.33222 19.8446 0.451172 20.9314 0.451172H27.0373C28.1242 0.451172 29.005 1.33222 29.005 2.4193V2.84259C29.0055 2.85994 29.0039 2.87715 29.0047 2.8943C29.0067 2.935 29.0086 2.97539 29.0058 3.01656C28.6748 7.44185 30.2778 11.8303 33.4446 14.9961C36.6114 18.1644 40.998 19.7685 45.4223 19.4366C45.4676 19.4332 45.512 19.4351 45.5561 19.4371C45.573 19.4379 45.5899 19.4386 45.6067 19.439L45.6091 19.4278ZM24.0004 36.4512C25.1278 33.8145 26.7518 31.3803 28.8309 29.2988C30.9158 27.2107 33.3572 25.5807 36 24.4512C33.3572 23.3216 30.9158 21.6908 28.8309 19.6035C26.7518 17.5229 25.1278 15.0862 24.0004 12.4512C22.8722 15.0862 21.2482 17.5229 19.1691 19.6035C17.0842 21.6908 14.6428 23.3216 12 24.4512C14.6428 25.5807 17.0842 27.2107 19.1691 29.2988C21.2482 31.3803 22.8722 33.8145 24.0004 36.4512Z"/>
</svg>
