<?xml version="1.0" encoding="iso-8859-1"?>
<!-- Uploaded to: SVG Repo, www.svgrepo.com, Generator: SVG Repo Mixer Tools -->
<svg fill="#000000" height="800px" width="800px" version="1.1" id="Layer_1" xmlns="http://www.w3.org/2000/svg" xmlns:xlink="http://www.w3.org/1999/xlink" 
	 viewBox="0 0 469.333 469.333" xml:space="preserve">
<g>
	<g>
		<path d="M458.667,341.333c-5.899,0-10.667,4.779-10.667,10.667v85.333c0,5.877-4.779,10.667-10.667,10.667h-224
			c-5.899,0-10.667,4.779-10.667,10.667c0,5.888,4.768,10.667,10.667,10.667h224c17.643,0,32-14.357,32-32V352
			C469.333,346.112,464.565,341.333,458.667,341.333z"/>
	</g>
</g>
<g>
	<g>
		<path d="M437.333,42.667H419.36C407.339,17.483,381.707,0,352,0h-85.333c-29.707,0-55.339,17.483-67.36,42.667h-17.973
			c-17.643,0-32,14.357-32,32v234.667c0,5.888,4.768,10.667,10.667,10.667c5.899,0,10.667-4.779,10.667-10.667V74.667
			c0-5.877,4.779-10.667,10.667-10.667h11.52C192.352,67.499,192,71.04,192,74.667V96c0,5.888,4.768,10.667,10.667,10.667H416
			c5.899,0,10.667-4.779,10.667-10.667V74.667c0-3.627-0.352-7.168-0.853-10.667h11.52C443.221,64,448,68.789,448,74.667v106.667
			c0,5.888,4.768,10.667,10.667,10.667s10.667-4.779,10.667-10.667V74.667C469.333,57.024,454.976,42.667,437.333,42.667z
			 M405.333,85.333h-192V74.667c0-29.408,23.925-53.333,53.333-53.333H352c29.408,0,53.333,23.925,53.333,53.333V85.333z"/>
	</g>
</g>
<g>
	<g>
		<circle cx="309.333" cy="53.333" r="10.667"/>
	</g>
</g>
<g>
	<g>
		<path d="M394.667,138.667H224c-5.899,0-10.667,4.779-10.667,10.667S218.101,160,224,160h170.667
			c5.899,0,10.667-4.779,10.667-10.667S400.565,138.667,394.667,138.667z"/>
	</g>
</g>
<g>
	<g>
		<path d="M309.333,192H224c-5.899,0-10.667,4.779-10.667,10.667s4.768,10.667,10.667,10.667h85.333
			c5.899,0,10.667-4.779,10.667-10.667S315.232,192,309.333,192z"/>
	</g>
</g>
<g>
	<g>
		<path d="M266.667,245.333H224c-5.899,0-10.667,4.779-10.667,10.667c0,5.888,4.768,10.667,10.667,10.667h42.667
			c5.899,0,10.667-4.779,10.667-10.667C277.333,250.112,272.565,245.333,266.667,245.333z"/>
	</g>
</g>
<g>
	<g>
		<path d="M416,352H309.333c-5.899,0-10.667,4.779-10.667,10.667c0,5.888,4.768,10.667,10.667,10.667H416
			c5.899,0,10.667-4.779,10.667-10.667C426.667,356.779,421.899,352,416,352z"/>
	</g>
</g>
<g>
	<g>
		<path d="M266.667,352H224c-5.899,0-10.667,4.779-10.667,10.667c0,5.888,4.768,10.667,10.667,10.667h42.667
			c5.899,0,10.667-4.779,10.667-10.667C277.333,356.779,272.565,352,266.667,352z"/>
	</g>
</g>
<g>
	<g>
		<path d="M288,298.667h-64c-5.899,0-10.667,4.779-10.667,10.667S218.101,320,224,320h64c5.899,0,10.667-4.779,10.667-10.667
			S293.899,298.667,288,298.667z"/>
	</g>
</g>
<g>
	<g>
		<path d="M373.333,202.667c-35.296,0-64,28.704-64,64c0,31.648,23.115,57.931,53.333,63.04V416c0,17.643-14.357,32-32,32H320
			c-17.643,0-32-14.357-32-32v-42.667C288,343.925,264.075,320,234.667,320H224c-29.408,0-53.333,23.925-53.333,53.333V416
			c0,17.643-14.357,32-32,32H128c-17.643,0-32-14.357-32-32V233.931c42.027-5.28,74.667-41.163,74.667-84.597v-42.667V96V32
			c0-11.765-9.568-21.333-21.333-21.333H128c-5.899,0-10.667,4.779-10.667,10.667S122.101,32,128,32h21.333v64v10.667
			c0,35.296-28.704,64-64,64c-35.296,0-64-28.704-64-64V96V32h21.333c5.899,0,10.667-4.779,10.667-10.667
			s-4.768-10.667-10.667-10.667H21.333C9.568,10.667,0,20.235,0,32v64v10.667v42.667c0,43.435,32.64,79.317,74.667,84.597V416
			c0,29.408,23.925,53.333,53.333,53.333h10.667C168.075,469.333,192,445.408,192,416v-42.667c0-17.643,14.357-32,32-32h10.667
			c17.643,0,32,14.357,32,32V416c0,29.408,23.925,53.333,53.333,53.333h10.667C360.075,469.333,384,445.408,384,416v-86.293
			c30.219-5.109,53.333-31.392,53.333-63.04C437.333,231.371,408.629,202.667,373.333,202.667z M85.333,213.333
			c-29.803,0-54.848-20.512-61.931-48.139C38.976,181.664,60.949,192,85.333,192c24.384,0,46.357-10.336,61.931-26.805
			C140.181,192.821,115.136,213.333,85.333,213.333z M373.333,309.333c-23.531,0-42.667-19.136-42.667-42.667
			S349.803,224,373.333,224S416,243.136,416,266.667S396.864,309.333,373.333,309.333z"/>
	</g>
</g>
<g>
	<g>
		<circle cx="373.333" cy="266.667" r="10.667"/>
	</g>
</g>
</svg>