<?xml version="1.0" encoding="iso-8859-1"?>
<!-- Uploaded to: SVG Repo, www.svgrepo.com, Generator: SVG Repo Mixer Tools -->
<!DOCTYPE svg PUBLIC "-//W3C//DTD SVG 1.1//EN" "http://www.w3.org/Graphics/SVG/1.1/DTD/svg11.dtd">
<svg fill="#000000" height="800px" width="800px" version="1.1" id="Capa_1" xmlns="http://www.w3.org/2000/svg" xmlns:xlink="http://www.w3.org/1999/xlink" 
	 viewBox="0 0 446.545 446.545" xml:space="preserve">
<g>
	<path d="M133.639,213.912c1.953,1.953,4.512,2.929,7.071,2.929s5.119-0.976,7.071-2.929c3.905-3.905,3.905-10.237,0-14.143
		l-18.611-18.611l26.662-26.662c3.905-3.905,3.905-10.237,0-14.142s-10.237-3.905-14.142,0l-26.661,26.662l-23.419-23.419
		l26.662-26.662c3.905-3.905,3.905-10.237,0-14.143c-3.905-3.905-10.237-3.905-14.143,0l-26.662,26.662l-53.3-53.299L76.444,24.23
		l123.438,123.438c3.905,3.905,10.237,3.905,14.143,0c3.905-3.905,3.905-10.237,0-14.142L83.54,3.041
		C79.644-0.854,73.33-0.865,69.421,3.017L2.953,69.035C1.067,70.909,0.004,73.455,0,76.113s1.049,5.208,2.929,7.088L133.639,213.912
		z"/>
	<path d="M443.617,363.118L313.019,232.52c-3.905-3.905-10.237-3.905-14.143,0c-3.905,3.905-3.905,10.237,0,14.143l123.527,123.526
		l-52.101,52.101l-53.323-53.324l26.662-26.662c3.905-3.905,3.905-10.237,0-14.142s-10.237-3.905-14.142,0l-26.661,26.662
		l-23.419-23.419l26.662-26.662c3.905-3.905,3.905-10.237,0-14.143s-10.237-3.905-14.143,0l-26.662,26.662l-18.499-18.499
		c-3.905-3.904-10.237-3.904-14.143,0c-3.905,3.905-3.905,10.237,0,14.143l130.598,130.598c1.953,1.953,4.512,2.929,7.071,2.929
		s5.119-0.976,7.071-2.929l66.243-66.243C447.521,373.355,447.521,367.023,443.617,363.118z"/>
	<path d="M63.324,61.988c-3.778,3.777-5.858,8.8-5.858,14.143c0,5.342,2.081,10.365,5.858,14.142
		c3.777,3.778,8.8,5.858,14.142,5.858s10.365-2.081,14.143-5.858c7.797-7.798,7.797-20.486,0-28.284
		c-3.778-3.777-8.8-5.857-14.143-5.857S67.101,58.21,63.324,61.988z"/>
	<path d="M384.445,383.109c3.777-3.778,5.858-8.8,5.858-14.142c0-5.342-2.081-10.365-5.858-14.143
		c-3.778-3.777-8.8-5.857-14.143-5.857c-5.342,0-10.364,2.08-14.142,5.857c-3.778,3.778-5.858,8.8-5.858,14.143
		c0,5.342,2.08,10.364,5.857,14.142c3.778,3.778,8.8,5.858,14.142,5.858C375.645,388.967,380.667,386.887,384.445,383.109z"/>
	<path d="M402.429,114.827c0.002-0.002,0.003-0.003,0.005-0.005s0.003-0.003,0.005-0.005l28.645-28.645
		c19.495-19.495,19.495-51.216,0-70.711c-9.432-9.431-21.988-14.625-35.355-14.625c-13.368,0-25.924,5.194-35.356,14.626
		l-28.64,28.64c-0.003,0.003-0.007,0.006-0.01,0.009s-0.006,0.007-0.009,0.01l-35.342,35.342c-0.001,0.001-0.003,0.002-0.004,0.004
		s-0.002,0.003-0.004,0.004L67.16,308.674c-0.019,0.019-0.034,0.042-0.053,0.061c-0.306,0.312-0.59,0.643-0.853,0.991
		c-0.057,0.075-0.108,0.153-0.163,0.23c-0.229,0.323-0.441,0.657-0.631,1.004c-0.021,0.039-0.05,0.073-0.071,0.112l-37.247,70.484
		c-0.019,0.035-0.038,0.07-0.056,0.106L1.996,431.036c-2.05,3.879-1.332,8.641,1.77,11.744c1.923,1.922,4.482,2.929,7.074,2.929
		c1.591,0,3.194-0.379,4.669-1.159l49.379-26.094c0.032-0.016,0.063-0.033,0.095-0.05l70.489-37.25
		c0.019-0.01,0.036-0.024,0.055-0.034c0.384-0.207,0.753-0.441,1.107-0.695c0.062-0.045,0.124-0.089,0.185-0.135
		c0.347-0.262,0.677-0.545,0.989-0.851c0.02-0.02,0.044-0.035,0.064-0.055L402.429,114.827z M62.137,397.288l-12.88-12.88
		l21.055-39.842l4.323,19.719c0.011,0.051,0.032,0.098,0.044,0.149c0.087,0.372,0.196,0.738,0.326,1.1
		c0.025,0.069,0.046,0.138,0.072,0.206c0.154,0.401,0.334,0.793,0.542,1.176c0.032,0.059,0.069,0.114,0.102,0.172
		c0.178,0.313,0.376,0.617,0.591,0.913c0.062,0.085,0.122,0.17,0.186,0.253c0.257,0.332,0.53,0.656,0.834,0.961
		c0.305,0.305,0.629,0.578,0.962,0.835c0.082,0.063,0.166,0.123,0.25,0.184c0.298,0.216,0.604,0.415,0.919,0.595
		c0.056,0.032,0.109,0.067,0.166,0.098c0.384,0.209,0.778,0.389,1.18,0.544c0.066,0.025,0.133,0.046,0.199,0.07
		c0.364,0.131,0.734,0.241,1.109,0.329c0.049,0.012,0.095,0.032,0.145,0.043l19.718,4.322L62.137,397.288z M104.399,356.288
		l36.76-36.761c3.905-3.905,3.905-10.237,0-14.142s-10.237-3.905-14.142,0l-36.76,36.76l-5.086-23.198l218.268-218.267
		l14.142,14.142L151.135,281.267c-3.905,3.905-3.905,10.237,0,14.143c1.953,1.953,4.512,2.929,7.071,2.929
		c2.559,0,5.119-0.977,7.071-2.929l166.445-166.445l14.142,14.142L127.597,361.374L104.399,356.288z M338.794,65.326l42.426,42.426
		l-21.213,21.213l-42.426-42.426L338.794,65.326z M374.515,29.605c5.654-5.655,13.188-8.769,21.213-8.769
		c8.025,0,15.559,3.114,21.212,8.768c11.697,11.697,11.697,30.729,0,42.426l-21.578,21.578l-42.426-42.426L374.515,29.605z
		 M39.478,402.914l4.154,4.154l-8.809,4.655L39.478,402.914z"/>
</g>
</svg>